<svg width="243" height="106" viewBox="0 0 243 106" fill="none" xmlns="http://www.w3.org/2000/svg">
<g clip-path="url(#clip0_101_56)">
<path d="M1.27776 99.3702C1.10945 99.3724 0.942418 99.3408 0.786504 99.2773C0.63059 99.2139 0.488949 99.1198 0.369929 99.0007C0.250909 98.8817 0.156919 98.7399 0.0934973 98.5839C0.0300761 98.4279 -0.00149262 98.2608 0.000651665 98.0924V47.8349C0.000651665 45.4379 1.99715 43.4401 4.47269 43.4401H22.0405C33.9394 43.4401 39.8489 51.1105 39.8489 58.7809C39.8606 60.9991 39.3626 63.1903 38.3933 65.1852C37.424 67.1802 36.0094 68.9255 34.2587 70.2865C40.0886 73.0829 43.0432 78.4367 43.0432 83.8693C43.0432 91.6194 37.1337 99.3697 25.155 99.3697L1.27776 99.3702ZM8.86376 67.6499H21.7213C27.9503 67.6499 31.0648 63.6549 31.0648 59.66C31.0648 55.8248 27.9503 51.8299 21.7213 51.8299H8.86427L8.86376 67.6499ZM8.86376 90.9805H24.8359C31.1448 90.9805 34.2587 86.9057 34.2587 82.9108C34.2587 78.916 31.1446 74.921 24.8359 74.921H8.86427L8.86376 90.9805Z" fill="#333333"/>
<path d="M87.7509 48.0755C87.7509 45.6785 89.7475 43.6807 92.2231 43.6807C93.3848 43.6911 94.496 44.1575 95.3174 44.9794C96.1388 45.8014 96.6048 46.9132 96.615 48.0755V98.3324C96.615 99.0518 95.9764 99.6102 95.2576 99.6102H89.0292C88.8608 99.6124 88.6937 99.5809 88.5377 99.5175C88.3816 99.4541 88.2399 99.3601 88.1207 99.241C88.0016 99.1219 87.9075 98.9802 87.844 98.8241C87.7804 98.6681 87.7488 98.5009 87.7509 98.3324V48.0755Z" fill="#333333"/>
<path d="M105.399 48.0755C105.399 45.6786 107.076 43.6807 109.952 43.6807C112.507 43.6807 114.104 45.5987 115.301 47.2763L143.092 84.27V48.0755C143.09 47.498 143.203 46.9258 143.423 46.3918C143.643 45.8579 143.967 45.3728 144.375 44.9644C144.783 44.556 145.268 44.2323 145.802 44.012C146.335 43.7917 146.907 43.6791 147.485 43.6807C149.96 43.6807 151.956 45.6786 151.956 48.0755V98.3324C151.956 99.0518 151.318 99.6102 150.599 99.6102H146.047C144.609 99.6102 143.811 98.8908 143.172 98.0922L114.264 59.5812V98.3324C114.264 99.0518 113.625 99.6102 112.906 99.6102H106.677C106.509 99.6124 106.342 99.5808 106.186 99.5173C106.03 99.4539 105.888 99.3598 105.769 99.2407C105.65 99.1217 105.556 98.9799 105.493 98.8239C105.429 98.6679 105.398 98.5008 105.4 98.3324L105.399 48.0755Z" fill="#333333"/>
<path d="M175.435 72.2054L168.967 78.5974V98.3324C168.967 99.0518 168.328 99.6102 167.609 99.6102H161.381C161.213 99.6124 161.046 99.5809 160.889 99.5175C160.733 99.4541 160.592 99.3601 160.473 99.241C160.353 99.1219 160.259 98.9802 160.196 98.8241C160.132 98.6681 160.101 98.5009 160.103 98.3324V48.0755C160.103 45.6785 162.099 43.6807 164.575 43.6807C165.737 43.6911 166.848 44.1574 167.669 44.9794C168.491 45.8014 168.957 46.9132 168.967 48.0755V67.4912L192.126 44.6397C192.892 43.9411 193.885 43.5437 194.921 43.521C195.425 43.5181 195.925 43.6155 196.391 43.8075C196.857 43.9996 197.28 44.2824 197.636 44.6397C199.153 46.3173 199.313 48.7144 197.716 50.2324L181.584 66.1329L200.75 93.139C202.188 95.0556 201.469 97.5331 199.552 98.9719C198.869 99.5058 198.023 99.7879 197.157 99.7705C196.499 99.7635 195.852 99.6005 195.269 99.295C194.686 98.9895 194.183 98.5502 193.803 98.0129L175.435 72.2054Z" fill="#333333"/>
<path d="M81.4337 94.7858C81.4337 94.7858 81.1272 96.7269 80.5502 98.257C80.0083 99.7377 79.1951 101.104 78.1524 102.287C77.1648 103.42 75.9562 104.34 74.6008 104.99C73.2434 105.648 71.7548 105.989 70.2466 105.99H70.1026L68.4708 106H67.3349V105.99L62.1426 106L60.5199 105.99H58.898C57.3911 105.989 55.9034 105.651 54.544 105C53.1909 104.342 51.9832 103.419 50.9922 102.287C49.9517 101.106 49.1386 99.7439 48.5938 98.2676C48.0047 96.6884 47.7054 95.0157 47.7105 93.3301V46.8429C47.7105 45.1494 48.017 42.8817 48.5848 41.3713C49.1268 39.8876 49.9399 38.5177 50.9826 37.3316C51.9732 36.1946 53.1848 35.2713 54.5435 34.6179C55.9031 33.9669 57.3902 33.6254 58.8975 33.6182L70.2466 33.6284C71.7539 33.6261 73.2423 33.9644 74.6008 34.6179C75.9567 35.2716 77.1652 36.1949 78.1524 37.3316C79.1959 38.515 80.0119 39.8811 80.5592 41.3612C81.1362 42.9118 81.4337 45.1903 81.4246 46.8429L81.433 82.3407C81.433 84.1416 80.1432 85.6016 78.5521 85.6016H72.595C71.0042 85.6016 69.7146 84.1425 69.7141 82.3424L69.7065 48.0274C69.7065 46.2257 68.415 44.7665 66.8232 44.7681L62.3075 44.7726C60.7175 44.7741 59.4293 46.2334 59.4293 48.0327V91.5256C59.4293 93.3262 60.7192 94.7858 62.3101 94.7858H81.4337Z" fill="#333333"/>
<path d="M243 31.1145C236.967 31.7542 232.114 32.407 228.3 33.3666C223.946 34.4638 221.038 35.9181 218.872 38.0865C216.707 40.2549 215.25 43.1634 214.155 47.5207C213.194 51.3368 212.541 56.1924 211.904 62.229C211.263 56.1906 210.61 51.3368 209.651 47.5207C208.555 43.1635 207.101 40.2549 204.934 38.0865C202.766 35.9181 199.86 34.4638 195.506 33.3666C191.692 32.407 186.839 31.7542 180.806 31.1145C186.839 30.4747 191.692 29.822 195.506 28.8605C199.86 27.7652 202.766 26.309 204.934 24.1406C207.101 21.9722 208.555 19.0655 209.651 14.7083C210.61 10.8922 211.263 6.0365 211.904 0C212.541 6.0365 213.194 10.8922 214.155 14.7083C215.25 19.0655 216.705 21.974 218.872 24.1406C221.039 26.3072 223.946 27.7652 228.3 28.8605C232.114 29.822 236.967 30.4747 243 31.1145Z" fill="#FFC200"/>
</g>
<defs>
<clipPath id="clip0_101_56">
<rect width="243" height="106" fill="white"/>
</clipPath>
</defs>
</svg>
