<svg id="Layer_1" data-name="Layer 1" xmlns="http://www.w3.org/2000/svg" viewBox="0 0 1902.742 829.562">
  <defs>
    <style>
      .cls-1 {
        fill: #333;
      }

      .cls-2 {
        fill: #ffc200;
      }
    </style>
  </defs>
  <g>
    <path class="cls-1" d="M20.345,882.729a9.875,9.875,0,0,1-10-10V479.411c0-18.759,15.633-34.394,35.017-34.394H182.922c93.171,0,139.443,60.029,139.443,120.058a113.267,113.267,0,0,1-43.772,90.043c45.649,21.885,68.784,63.784,68.784,106.3,0,60.653-46.272,121.307-140.068,121.307Zm59.4-248.245H180.422c48.775,0,73.162-31.265,73.162-62.529,0-30.015-24.387-61.279-73.162-61.279H79.749Zm0,182.587H204.81c49.4,0,73.783-31.89,73.783-63.154s-24.384-62.529-73.783-62.529H79.749Z" transform="translate(-10.34 -105.052)"/>
    <path class="cls-1" d="M697.448,481.294c0-18.759,15.634-34.394,35.019-34.394a34.7,34.7,0,0,1,34.389,34.394V874.607c0,5.63-5,10-10.629,10H707.458a9.879,9.879,0,0,1-10.01-10Z" transform="translate(-10.34 -105.052)"/>
    <path class="cls-1" d="M835.64,481.294c0-18.759,13.13-34.394,35.645-34.394,20.009,0,32.514,15.01,41.889,28.139L1130.78,764.554V481.294a34.3,34.3,0,0,1,34.395-34.394c19.384,0,35.014,15.635,35.014,34.394V874.607c0,5.63-5,10-10.63,10H1153.92c-11.26,0-17.51-5.63-22.51-11.88L905.049,571.338V874.607c0,5.63-5,10-10.63,10H845.645a9.874,9.874,0,0,1-10-10Z" transform="translate(-10.34 -105.052)"/>
    <path class="cls-1" d="M1384.036,670.136l-50.649,50.024V874.607c0,5.63-5,10-10.63,10h-48.769a9.879,9.879,0,0,1-10.01-10V481.294c0-18.759,15.635-34.394,35.019-34.394a34.7,34.7,0,0,1,34.39,34.394V633.242l181.337-178.837a33.59,33.59,0,0,1,21.889-8.755,29.77,29.77,0,0,1,21.26,8.755c11.88,13.129,13.13,31.889.625,43.769L1432.185,622.612l150.073,211.351c11.254,15,5.629,34.389-9.38,45.649a29.512,29.512,0,0,1-18.76,6.25,32.61,32.61,0,0,1-26.259-13.755Z" transform="translate(-10.34 -105.052)"/>
    <path class="cls-1" d="M647.983,846.851s-2.4,15.191-6.918,27.166a99.247,99.247,0,0,1-18.775,31.536,86.438,86.438,0,0,1-27.81,21.157,78.258,78.258,0,0,1-34.094,7.824h-1.128l-12.777.08h-8.894v-.08l-40.657.08-12.706-.08h-12.7a79.08,79.08,0,0,1-34.093-7.744,88.237,88.237,0,0,1-27.811-21.237A99.793,99.793,0,0,1,390.84,874.1a109.565,109.565,0,0,1-6.917-38.641V471.647c0-13.253,2.4-31,6.846-42.821a99.677,99.677,0,0,1,18.776-31.615,86.962,86.962,0,0,1,27.882-21.237,79.865,79.865,0,0,1,34.093-7.824l88.866.08a78.4,78.4,0,0,1,34.094,7.744,86.7,86.7,0,0,1,27.81,21.237,100.263,100.263,0,0,1,18.846,31.536c4.518,12.135,6.847,29.967,6.776,42.9l.066,277.808c0,14.094-10.1,25.52-22.558,25.52H578.774c-12.456,0-22.554-11.419-22.558-25.507l-.059-268.551c0-14.1-10.113-25.52-22.577-25.507l-35.359.035c-12.45.012-22.537,11.432-22.537,25.514V821.337c0,14.091,10.1,25.514,22.557,25.514Z" transform="translate(-10.34 -105.052)"/>
  </g>
  <path class="cls-2" d="M1913.082,348.556c-47.242,5.006-85.243,10.115-115.108,17.625-34.085,8.587-56.862,19.968-73.818,36.938s-28.366,39.732-36.938,73.833c-7.525,29.865-12.633,67.865-17.625,115.108-5.021-47.257-10.13-85.243-17.64-115.108-8.586-34.1-19.968-56.863-36.938-73.833s-39.732-28.351-73.818-36.938c-29.865-7.51-67.866-12.619-115.108-17.625,47.242-5.007,85.243-10.115,115.108-17.64,34.086-8.572,56.848-19.968,73.818-36.938s28.352-39.718,36.938-73.818c7.51-29.865,12.619-67.866,17.64-115.108,4.992,47.242,10.1,85.243,17.625,115.108,8.572,34.1,19.968,56.862,36.938,73.818s39.733,28.366,73.818,36.938C1827.839,338.441,1865.84,343.549,1913.082,348.556Z" transform="translate(-10.34 -105.052)"/>
</svg>
