<svg width="324" height="30" viewBox="0 0 324 30" fill="none" xmlns="http://www.w3.org/2000/svg">
<path d="M0.48 14.96C0.48 6.4 6.52 0.359999 15.2 0.359999C18.56 0.359999 21.48 1.32 23.84 2.96C26.4 4.56 26.44 7.52 24.92 8.64C24.36 9.04 23.8 9.24 23.2 9.24C22.2 9.24 21.16 8.68 20.2 7.92C18.84 6.92 17.16 6.36 15.2 6.36C10.36 6.36 6.96 9.92 6.96 14.96C6.96 20 10.36 23.56 15.2 23.56C17.16 23.56 18.84 23 20.2 22C21.16 21.24 22.2 20.68 23.2 20.68C23.8 20.68 24.36 20.88 24.92 21.28C26.44 22.4 26.4 25.36 23.84 26.96C21.48 28.6 18.56 29.56 15.2 29.56C6.52 29.56 0.48 23.52 0.48 14.96ZM37.9009 8.2H39.0609C40.5009 8.2 41.6609 9.36 41.6609 10.8C41.6609 12.24 40.5009 13.4 39.0609 13.4H38.0609C35.3409 13.4 33.9809 15.2 33.9809 17.8V28.12C33.9809 28.6 33.5809 29 33.1409 29H28.9809C28.5409 29 28.1409 28.6 28.1409 28.12V17.52C28.1409 12 31.7009 8.2 37.9009 8.2ZM60.2266 20.68H48.4266C49.0666 23.08 50.9866 24.6 53.4666 24.6C54.8666 24.6 56.0666 24.36 57.1866 23.72C57.9466 23.32 58.5866 23.12 59.2266 23.12C60.6666 23.12 61.6666 24.2 61.6666 25.48C61.6666 28.8 55.8666 29.52 53.5066 29.52C47.1466 29.52 42.6666 25.12 42.6666 18.84C42.6666 12.6 46.9066 8.16 52.9866 8.16C58.8666 8.16 62.9466 12.36 62.9466 18C62.9466 20.08 61.5066 20.68 60.2266 20.68ZM53.0266 13.12C50.7866 13.12 49.0666 14.56 48.4266 16.92H57.4266C57.0266 14.64 55.3066 13.12 53.0266 13.12ZM87.2744 11.08V28.16C87.2744 28.6 86.8744 29.04 86.4344 29.04H82.3144C81.8344 29.04 81.4344 28.6 81.4344 28.16V26.96C79.8344 28.6 77.6344 29.52 75.1144 29.52C69.5944 29.52 65.6744 25.08 65.6744 18.84C65.6744 12.6 69.5944 8.16 75.1144 8.16C77.6744 8.16 79.9544 9.12 81.5144 10.76C81.5944 9.28 82.8344 8.2 84.3544 8.2C85.9944 8.2 87.2744 9.52 87.2744 11.08ZM81.5544 18.84C81.5544 15.6 79.4744 13.36 76.5144 13.36C73.5144 13.36 71.3944 15.6 71.3944 18.84C71.3944 22.08 73.5144 24.32 76.5144 24.32C79.4744 24.32 81.5544 22.08 81.5544 18.84ZM100.761 13.28H99.3609V28.12C99.3609 28.6 98.9609 29 98.5209 29H94.3609C93.9209 29 93.5209 28.6 93.5209 28.12V13.28H92.1209C90.7609 13.28 89.6809 12.16 89.6809 10.8C89.6809 9.44 90.7609 8.36 92.1209 8.36H93.5209V5.52C93.5209 3.92 94.8409 2.6 96.4809 2.6C98.0809 2.6 99.3609 3.92 99.3609 5.52V8.36H100.761C102.121 8.36 103.201 9.44 103.201 10.8C103.201 12.16 102.121 13.28 100.761 13.28ZM122.609 20.68H110.809C111.449 23.08 113.369 24.6 115.849 24.6C117.249 24.6 118.449 24.36 119.569 23.72C120.329 23.32 120.969 23.12 121.609 23.12C123.049 23.12 124.049 24.2 124.049 25.48C124.049 28.8 118.249 29.52 115.889 29.52C109.529 29.52 105.049 25.12 105.049 18.84C105.049 12.6 109.289 8.16 115.369 8.16C121.249 8.16 125.329 12.36 125.329 18C125.329 20.08 123.889 20.68 122.609 20.68ZM115.409 13.12C113.169 13.12 111.449 14.56 110.809 16.92H119.809C119.409 14.64 117.689 13.12 115.409 13.12ZM146.951 12.28H156.791C158.431 12.28 159.391 13.48 159.391 14.76C159.391 16.08 158.431 17.28 156.791 17.28H156.551V23.32C156.551 24.56 155.751 25.64 154.751 26.48C152.671 28.44 149.191 29.32 145.951 29.32C139.111 29.32 135.391 25.6 135.391 20.92C135.391 18.44 136.791 15.92 140.031 14.68C137.311 13.28 136.151 11.08 136.151 8.64C136.151 4.04 139.591 0.359999 146.071 0.359999C148.831 0.359999 151.831 1.24 153.631 2.84C155.871 4.6 155.591 7.4 154.031 8.24C153.551 8.52 153.111 8.6 152.711 8.6C151.671 8.6 150.791 7.96 150.151 7.52C148.711 6.4 147.431 6.08 146.151 6.08C143.391 6.08 142.311 7.44 142.311 8.96C142.311 11.2 144.111 12.28 146.951 12.28ZM141.591 20.6C141.591 22.2 142.951 23.6 146.071 23.6C147.631 23.6 149.031 23.28 150.511 22.36V17.28H146.911C143.951 17.28 141.591 18.36 141.591 20.6ZM169.582 14.96C169.582 6.4 175.622 0.359999 184.302 0.359999C187.662 0.359999 190.582 1.32 192.942 2.96C195.502 4.56 195.542 7.52 194.022 8.64C193.462 9.04 192.902 9.24 192.302 9.24C191.302 9.24 190.262 8.68 189.302 7.92C187.942 6.92 186.262 6.36 184.302 6.36C179.462 6.36 176.062 9.92 176.062 14.96C176.062 20 179.462 23.56 184.302 23.56C186.262 23.56 187.942 23 189.302 22C190.262 21.24 191.302 20.68 192.302 20.68C192.902 20.68 193.462 20.88 194.022 21.28C195.542 22.4 195.502 25.36 192.942 26.96C190.582 28.6 187.662 29.56 184.302 29.56C175.622 29.56 169.582 23.52 169.582 14.96ZM207.763 29.6C201.483 29.6 197.003 25.16 197.003 18.84C197.003 12.6 201.483 8.16 207.763 8.16C214.123 8.16 218.603 12.6 218.603 18.84C218.603 25.16 214.123 29.6 207.763 29.6ZM207.763 24.4C210.803 24.4 212.883 22.16 212.883 18.84C212.883 15.6 210.803 13.36 207.763 13.36C204.843 13.36 202.723 15.6 202.723 18.84C202.723 22.16 204.843 24.4 207.763 24.4ZM235.495 28.12V17.52C235.495 15 233.855 13.24 231.575 13.24C229.215 13.24 227.575 15 227.575 17.52V28.12C227.575 28.6 227.175 29 226.735 29H222.575C222.135 29 221.735 28.6 221.735 28.12V11.12C221.735 9.52 223.055 8.2 224.695 8.2C226.015 8.2 227.175 9.12 227.495 10.36C228.935 8.96 230.935 8.16 233.255 8.16C238.015 8.16 241.375 11.76 241.375 16.96V28.12C241.375 28.6 240.975 29 240.495 29H236.375C235.935 29 235.495 28.6 235.495 28.12ZM258.268 28.12V17.52C258.268 15 256.628 13.24 254.348 13.24C251.988 13.24 250.348 15 250.348 17.52V28.12C250.348 28.6 249.948 29 249.508 29H245.348C244.908 29 244.508 28.6 244.508 28.12V11.12C244.508 9.52 245.828 8.2 247.468 8.2C248.788 8.2 249.948 9.12 250.268 10.36C251.708 8.96 253.708 8.16 256.028 8.16C260.788 8.16 264.148 11.76 264.148 16.96V28.12C264.148 28.6 263.748 29 263.268 29H259.148C258.708 29 258.268 28.6 258.268 28.12ZM284.602 20.68H272.802C273.442 23.08 275.362 24.6 277.842 24.6C279.242 24.6 280.442 24.36 281.562 23.72C282.322 23.32 282.962 23.12 283.602 23.12C285.042 23.12 286.042 24.2 286.042 25.48C286.042 28.8 280.242 29.52 277.882 29.52C271.522 29.52 267.042 25.12 267.042 18.84C267.042 12.6 271.282 8.16 277.362 8.16C283.242 8.16 287.322 12.36 287.322 18C287.322 20.08 285.882 20.68 284.602 20.68ZM277.402 13.12C275.162 13.12 273.442 14.56 272.802 16.92H281.802C281.402 14.64 279.682 13.12 277.402 13.12ZM290.049 18.84C290.049 12.6 294.529 8.16 300.809 8.16C303.169 8.16 308.449 8.92 308.449 12.16C308.449 13.48 307.369 14.68 305.849 14.68C305.289 14.68 304.609 14.52 303.929 14.12C302.929 13.56 301.969 13.36 300.809 13.36C297.889 13.36 295.769 15.6 295.769 18.84C295.769 22.08 297.889 24.32 300.809 24.32C302.009 24.32 302.969 24.12 303.929 23.56C304.609 23.16 305.289 23 305.849 23C307.369 23 308.449 24.2 308.449 25.52C308.449 28.8 303.169 29.52 300.809 29.52C294.529 29.52 290.049 25.08 290.049 18.84ZM320.839 13.28H319.439V28.12C319.439 28.6 319.039 29 318.599 29H314.439C313.999 29 313.599 28.6 313.599 28.12V13.28H312.199C310.839 13.28 309.759 12.16 309.759 10.8C309.759 9.44 310.839 8.36 312.199 8.36H313.599V5.52C313.599 3.92 314.919 2.6 316.559 2.6C318.159 2.6 319.439 3.92 319.439 5.52V8.36H320.839C322.199 8.36 323.279 9.44 323.279 10.8C323.279 12.16 322.199 13.28 320.839 13.28Z" fill="url(#paint0_linear_113_959)"/>
<defs>
<linearGradient id="paint0_linear_113_959" x1="-0.999999" y1="37.4297" x2="26.4253" y2="-76.228" gradientUnits="userSpaceOnUse">
<stop stop-color="#CD55FB"/>
<stop offset="0.5" stop-color="#FF4452"/>
<stop offset="1" stop-color="#FCB341"/>
</linearGradient>
</defs>
</svg>
