<svg width="305" height="68" viewBox="0 0 305 68" fill="none" xmlns="http://www.w3.org/2000/svg">
<path d="M1.332 13.364C1.332 5.66 6.768 0.223999 14.58 0.223999C17.604 0.223999 20.232 1.088 22.356 2.564C24.66 4.004 24.696 6.668 23.328 7.676C22.824 8.036 22.32 8.216 21.78 8.216C20.88 8.216 19.944 7.712 19.08 7.028C17.856 6.128 16.344 5.624 14.58 5.624C10.224 5.624 7.164 8.828 7.164 13.364C7.164 17.9 10.224 21.104 14.58 21.104C16.344 21.104 17.856 20.6 19.08 19.7C19.944 19.016 20.88 18.512 21.78 18.512C22.32 18.512 22.824 18.692 23.328 19.052C24.696 20.06 24.66 22.724 22.356 24.164C20.232 25.64 17.604 26.504 14.58 26.504C6.768 26.504 1.332 21.068 1.332 13.364ZM45.4508 9.872V25.244C45.4508 25.64 45.0908 26.036 44.6948 26.036H40.9868C40.5548 26.036 40.1948 25.64 40.1948 25.244V24.164C38.7548 25.64 36.7748 26.468 34.5068 26.468C29.5388 26.468 26.0108 22.472 26.0108 16.856C26.0108 11.24 29.5388 7.244 34.5068 7.244C36.8108 7.244 38.8628 8.108 40.2668 9.584C40.3388 8.252 41.4548 7.28 42.8228 7.28C44.2988 7.28 45.4508 8.468 45.4508 9.872ZM40.3028 16.856C40.3028 13.94 38.4308 11.924 35.7668 11.924C33.0668 11.924 31.1588 13.94 31.1588 16.856C31.1588 19.772 33.0668 21.788 35.7668 21.788C38.4308 21.788 40.3028 19.772 40.3028 16.856ZM58.1288 11.924C55.5008 11.924 53.5928 13.94 53.5928 16.928C53.5928 19.844 55.5008 21.86 58.1288 21.86C60.8288 21.86 62.7368 19.844 62.7368 16.928C62.7368 13.94 60.8288 11.924 58.1288 11.924ZM48.4448 31.076V16.928C48.4448 11.24 52.4408 7.244 58.1288 7.244C63.8528 7.244 67.8848 11.24 67.8848 16.928C67.8848 22.544 64.2848 26.54 59.2088 26.54C57.0128 26.54 55.1408 25.82 53.7008 24.488V31.076C53.7008 32.516 52.5128 33.704 51.1088 33.704C49.6328 33.704 48.4448 32.516 48.4448 31.076ZM79.8427 11.852H78.5827V25.208C78.5827 25.64 78.2227 26 77.8267 26H74.0827C73.6867 26 73.3267 25.64 73.3267 25.208V11.852H72.0667C70.8427 11.852 69.8707 10.844 69.8707 9.62C69.8707 8.396 70.8427 7.424 72.0667 7.424H73.3267V4.868C73.3267 3.428 74.5147 2.24 75.9907 2.24C77.4307 2.24 78.5827 3.428 78.5827 4.868V7.424H79.8427C81.0667 7.424 82.0387 8.396 82.0387 9.62C82.0387 10.844 81.0667 11.852 79.8427 11.852ZM84.1635 18.116V9.908C84.1635 8.468 85.3515 7.28 86.8275 7.28C88.2675 7.28 89.4195 8.468 89.4195 9.908V18.152C89.4195 20.384 90.8955 21.932 92.9475 21.932C95.0355 21.932 96.4755 20.384 96.4755 18.152V9.908C96.4755 8.468 97.6635 7.28 99.1035 7.28C100.58 7.28 101.732 8.468 101.732 9.908V18.116C101.732 23.084 98.1315 26.576 92.9475 26.576C87.7995 26.576 84.1635 23.084 84.1635 18.116ZM113.55 7.28H114.594C115.89 7.28 116.934 8.324 116.934 9.62C116.934 10.916 115.89 11.96 114.594 11.96H113.694C111.246 11.96 110.022 13.58 110.022 15.92V25.208C110.022 25.64 109.662 26 109.266 26H105.522C105.126 26 104.766 25.64 104.766 25.208V15.668C104.766 10.7 107.97 7.28 113.55 7.28ZM133.643 18.512H123.023C123.599 20.672 125.327 22.04 127.559 22.04C128.819 22.04 129.899 21.824 130.907 21.248C131.591 20.888 132.167 20.708 132.743 20.708C134.039 20.708 134.939 21.68 134.939 22.832C134.939 25.82 129.719 26.468 127.595 26.468C121.871 26.468 117.839 22.508 117.839 16.856C117.839 11.24 121.655 7.244 127.127 7.244C132.419 7.244 136.091 11.024 136.091 16.1C136.091 17.972 134.795 18.512 133.643 18.512ZM127.163 11.708C125.147 11.708 123.599 13.004 123.023 15.128H131.123C130.763 13.076 129.215 11.708 127.163 11.708ZM145.038 25.136L146.946 3.644C147.054 2.06 148.314 0.799998 150.078 0.799998C151.842 0.799998 152.922 1.952 153.39 3.176L158.862 17.504L164.298 3.176C164.766 1.952 165.846 0.799998 167.646 0.799998C169.41 0.799998 170.634 2.06 170.778 3.644L172.65 25.136C172.686 25.604 172.362 26 171.894 26H168.078C167.61 26 167.178 25.604 167.142 25.136L166.134 11.348L161.274 24.596C160.878 25.748 160.518 26.108 158.862 26.108C157.242 26.108 156.846 25.748 156.45 24.596L151.59 11.348L150.582 25.136C150.51 25.604 150.114 26 149.646 26H145.83C145.362 26 145.002 25.604 145.038 25.136ZM184.441 26.54C178.789 26.54 174.757 22.544 174.757 16.856C174.757 11.24 178.789 7.244 184.441 7.244C190.165 7.244 194.197 11.24 194.197 16.856C194.197 22.544 190.165 26.54 184.441 26.54ZM184.441 21.86C187.177 21.86 189.049 19.844 189.049 16.856C189.049 13.94 187.177 11.924 184.441 11.924C181.813 11.924 179.905 13.94 179.905 16.856C179.905 19.844 181.813 21.86 184.441 21.86ZM208.104 25.208V15.308C208.104 13.256 206.916 11.816 205.224 11.816C203.496 11.816 202.272 13.256 202.272 15.308V25.208C202.272 25.64 201.912 26 201.516 26H197.772C197.376 26 197.016 25.64 197.016 25.208V9.908C197.016 8.468 198.204 7.28 199.68 7.28C200.796 7.28 201.768 8 202.128 9.008C203.28 7.892 204.864 7.244 206.664 7.244C209.04 7.244 211.02 8.396 212.172 10.304C213.36 8.396 215.34 7.244 217.788 7.244C221.712 7.244 224.484 10.376 224.484 14.876V25.208C224.484 25.64 224.124 26 223.728 26H219.984C219.588 26 219.228 25.64 219.228 25.208V15.308C219.228 13.256 218.004 11.816 216.312 11.816C214.584 11.816 213.396 13.256 213.396 15.308V25.208C213.396 25.64 213.036 26 212.604 26H208.896C208.5 26 208.104 25.64 208.104 25.208ZM242.909 18.512H232.289C232.865 20.672 234.593 22.04 236.825 22.04C238.085 22.04 239.165 21.824 240.173 21.248C240.857 20.888 241.433 20.708 242.009 20.708C243.305 20.708 244.205 21.68 244.205 22.832C244.205 25.82 238.985 26.468 236.861 26.468C231.137 26.468 227.105 22.508 227.105 16.856C227.105 11.24 230.921 7.244 236.393 7.244C241.685 7.244 245.357 11.024 245.357 16.1C245.357 17.972 244.061 18.512 242.909 18.512ZM236.429 11.708C234.413 11.708 232.865 13.004 232.289 15.128H240.389C240.029 13.076 238.481 11.708 236.429 11.708ZM260.412 25.208V15.668C260.412 13.4 258.936 11.816 256.884 11.816C254.76 11.816 253.284 13.4 253.284 15.668V25.208C253.284 25.64 252.924 26 252.528 26H248.784C248.388 26 248.028 25.64 248.028 25.208V9.908C248.028 8.468 249.216 7.28 250.692 7.28C251.88 7.28 252.924 8.108 253.212 9.224C254.508 7.964 256.308 7.244 258.396 7.244C262.68 7.244 265.704 10.484 265.704 15.164V25.208C265.704 25.64 265.344 26 264.912 26H261.204C260.808 26 260.412 25.64 260.412 25.208ZM277.632 11.852H276.372V25.208C276.372 25.64 276.012 26 275.616 26H271.872C271.476 26 271.116 25.64 271.116 25.208V11.852H269.856C268.632 11.852 267.66 10.844 267.66 9.62C267.66 8.396 268.632 7.424 269.856 7.424H271.116V4.868C271.116 3.428 272.304 2.24 273.78 2.24C275.22 2.24 276.372 3.428 276.372 4.868V7.424H277.632C278.856 7.424 279.828 8.396 279.828 9.62C279.828 10.844 278.856 11.852 277.632 11.852ZM288.469 7.244C290.485 7.244 294.949 7.856 294.949 10.628C294.949 11.744 294.049 12.752 292.789 12.752C292.285 12.752 291.745 12.572 291.169 12.248C290.305 11.816 289.441 11.6 288.505 11.6C287.533 11.6 286.885 12.104 286.885 12.86C286.885 15.272 295.741 14.12 295.741 20.6C295.741 24.128 293.005 26.54 288.505 26.54C286.489 26.54 281.341 26.036 281.341 23.12C281.341 22.004 282.277 20.996 283.573 20.996C284.041 20.996 284.617 21.176 285.193 21.464C286.309 22.04 287.281 22.184 288.433 22.184C289.909 22.184 290.665 21.464 290.665 20.708C290.665 18.08 281.809 19.268 281.809 13.004C281.809 9.62 284.257 7.244 288.469 7.244ZM298.161 23.516C298.161 21.86 299.529 20.492 301.221 20.492C302.913 20.492 304.209 21.824 304.209 23.48C304.209 26.684 302.193 29.924 298.845 30.536C297.621 30.752 296.973 29.024 298.485 28.448C299.493 28.088 300.141 27.224 300.321 26.396C299.061 26.036 298.161 24.884 298.161 23.516ZM12.628 37.644C15.539 37.644 18.368 38.3 20.5 39.735C23.083 41.293 23.124 44.122 21.607 45.188C21.033 45.598 20.459 45.762 19.885 45.762C18.86 45.762 17.794 45.188 16.81 44.45C15.744 43.671 14.227 43.384 12.792 43.384C9.881 43.384 8.61 44.819 8.61 46.336C8.61 51.338 23.534 48.099 23.534 58.554C23.534 63.269 19.68 67.656 12.546 67.656C8.979 67.656 5.904 66.631 3.403 64.909C0.738 63.351 0.738 60.481 2.255 59.456C2.829 59.046 3.403 58.882 3.977 58.882C5.043 58.882 6.109 59.456 7.093 60.194C8.61 61.26 10.291 61.916 12.382 61.916C15.334 61.916 16.81 60.276 16.81 58.636C16.81 53.675 1.886 57.283 1.886 46.377C1.886 41.826 5.494 37.644 12.628 37.644ZM40.4901 66.098V55.233C40.4901 52.65 38.8091 50.846 36.4721 50.846C34.0531 50.846 32.3721 52.65 32.3721 55.233V66.098C32.3721 66.59 31.9621 67 31.5111 67H27.2471C26.7961 67 26.3861 66.59 26.3861 66.098V40.473C26.3861 38.833 27.7391 37.48 29.4201 37.48C31.0191 37.48 32.3721 38.833 32.3721 40.473V47.812C33.8481 46.418 35.8571 45.639 38.1941 45.639C43.0731 45.639 46.5171 49.329 46.5171 54.659V66.098C46.5171 66.59 46.1071 67 45.6151 67H41.3921C40.9411 67 40.4901 66.59 40.4901 66.098ZM71.6228 48.632V66.139C71.6228 66.59 71.2128 67.041 70.7618 67.041H66.5388C66.0468 67.041 65.6368 66.59 65.6368 66.139V64.909C63.9968 66.59 61.7418 67.533 59.1588 67.533C53.5008 67.533 49.4828 62.982 49.4828 56.586C49.4828 50.19 53.5008 45.639 59.1588 45.639C61.7828 45.639 64.1198 46.623 65.7188 48.304C65.8008 46.787 67.0718 45.68 68.6298 45.68C70.3108 45.68 71.6228 47.033 71.6228 48.632ZM65.7598 56.586C65.7598 53.265 63.6278 50.969 60.5938 50.969C57.5188 50.969 55.3458 53.265 55.3458 56.586C55.3458 59.907 57.5188 62.203 60.5938 62.203C63.6278 62.203 65.7598 59.907 65.7598 56.586ZM85.0776 45.68H86.2666C87.7426 45.68 88.9316 46.869 88.9316 48.345C88.9316 49.821 87.7426 51.01 86.2666 51.01H85.2416C82.4536 51.01 81.0596 52.855 81.0596 55.52V66.098C81.0596 66.59 80.6496 67 80.1986 67H75.9346C75.4836 67 75.0736 66.59 75.0736 66.098V55.233C75.0736 49.575 78.7226 45.68 85.0776 45.68ZM107.961 58.472H95.8663C96.5223 60.932 98.4903 62.49 101.032 62.49C102.467 62.49 103.697 62.244 104.845 61.588C105.624 61.178 106.28 60.973 106.936 60.973C108.412 60.973 109.437 62.08 109.437 63.392C109.437 66.795 103.492 67.533 101.073 67.533C94.5543 67.533 89.9623 63.023 89.9623 56.586C89.9623 50.19 94.3083 45.639 100.54 45.639C106.567 45.639 110.749 49.944 110.749 55.725C110.749 57.857 109.273 58.472 107.961 58.472ZM100.581 50.723C98.2853 50.723 96.5223 52.199 95.8663 54.618H105.091C104.681 52.281 102.918 50.723 100.581 50.723ZM120.939 66.016L123.112 41.539C123.235 39.735 124.67 38.3 126.679 38.3C128.688 38.3 129.918 39.612 130.451 41.006L136.683 57.324L142.874 41.006C143.407 39.612 144.637 38.3 146.687 38.3C148.696 38.3 150.09 39.735 150.254 41.539L152.386 66.016C152.427 66.549 152.058 67 151.525 67H147.179C146.646 67 146.154 66.549 146.113 66.016L144.965 50.313L139.43 65.401C138.979 66.713 138.569 67.123 136.683 67.123C134.838 67.123 134.387 66.713 133.936 65.401L128.401 50.313L127.253 66.016C127.171 66.549 126.72 67 126.187 67H121.841C121.308 67 120.898 66.549 120.939 66.016ZM172.785 58.472H160.69C161.346 60.932 163.314 62.49 165.856 62.49C167.291 62.49 168.521 62.244 169.669 61.588C170.448 61.178 171.104 60.973 171.76 60.973C173.236 60.973 174.261 62.08 174.261 63.392C174.261 66.795 168.316 67.533 165.897 67.533C159.378 67.533 154.786 63.023 154.786 56.586C154.786 50.19 159.132 45.639 165.364 45.639C171.391 45.639 175.573 49.944 175.573 55.725C175.573 57.857 174.097 58.472 172.785 58.472ZM165.405 50.723C163.109 50.723 161.346 52.199 160.69 54.618H169.915C169.505 52.281 167.742 50.723 165.405 50.723ZM191.243 66.098V54.823C191.243 52.486 189.89 50.846 187.963 50.846C185.995 50.846 184.601 52.486 184.601 54.823V66.098C184.601 66.59 184.191 67 183.74 67H179.476C179.025 67 178.615 66.59 178.615 66.098V48.673C178.615 47.033 179.968 45.68 181.649 45.68C182.92 45.68 184.027 46.5 184.437 47.648C185.749 46.377 187.553 45.639 189.603 45.639C192.309 45.639 194.564 46.951 195.876 49.124C197.229 46.951 199.484 45.639 202.272 45.639C206.741 45.639 209.898 49.206 209.898 54.331V66.098C209.898 66.59 209.488 67 209.037 67H204.773C204.322 67 203.912 66.59 203.912 66.098V54.823C203.912 52.486 202.518 50.846 200.591 50.846C198.623 50.846 197.27 52.486 197.27 54.823V66.098C197.27 66.59 196.86 67 196.368 67H192.145C191.694 67 191.243 66.59 191.243 66.098ZM223.911 67.615C217.474 67.615 212.882 63.064 212.882 56.586C212.882 50.19 217.474 45.639 223.911 45.639C230.43 45.639 235.022 50.19 235.022 56.586C235.022 63.064 230.43 67.615 223.911 67.615ZM223.911 62.285C227.027 62.285 229.159 59.989 229.159 56.586C229.159 53.265 227.027 50.969 223.911 50.969C220.918 50.969 218.745 53.265 218.745 56.586C218.745 59.989 220.918 62.285 223.911 62.285ZM248.237 45.68H249.426C250.902 45.68 252.091 46.869 252.091 48.345C252.091 49.821 250.902 51.01 249.426 51.01H248.401C245.613 51.01 244.219 52.855 244.219 55.52V66.098C244.219 66.59 243.809 67 243.358 67H239.094C238.643 67 238.233 66.59 238.233 66.098V55.233C238.233 49.575 241.882 45.68 248.237 45.68ZM254.86 66.098V48.673C254.86 47.033 256.213 45.68 257.894 45.68C259.493 45.68 260.846 47.033 260.846 48.673V66.098C260.846 66.59 260.436 67 259.985 67H255.721C255.27 67 254.86 66.59 254.86 66.098ZM254.368 40.145C254.368 38.259 255.926 36.701 257.894 36.701C259.78 36.701 261.338 38.259 261.338 40.145C261.338 42.031 259.78 43.589 257.894 43.589C255.926 43.589 254.368 42.031 254.368 40.145ZM282.492 58.472H270.397C271.053 60.932 273.021 62.49 275.563 62.49C276.998 62.49 278.228 62.244 279.376 61.588C280.155 61.178 280.811 60.973 281.467 60.973C282.943 60.973 283.968 62.08 283.968 63.392C283.968 66.795 278.023 67.533 275.604 67.533C269.085 67.533 264.493 63.023 264.493 56.586C264.493 50.19 268.839 45.639 275.071 45.639C281.098 45.639 285.28 49.944 285.28 55.725C285.28 57.857 283.804 58.472 282.492 58.472ZM275.112 50.723C272.816 50.723 271.053 52.199 270.397 54.618H279.622C279.212 52.281 277.449 50.723 275.112 50.723ZM295.702 45.639C297.998 45.639 303.082 46.336 303.082 49.493C303.082 50.764 302.057 51.912 300.622 51.912C300.048 51.912 299.433 51.707 298.777 51.338C297.793 50.846 296.809 50.6 295.743 50.6C294.636 50.6 293.898 51.174 293.898 52.035C293.898 54.782 303.984 53.47 303.984 60.85C303.984 64.868 300.868 67.615 295.743 67.615C293.447 67.615 287.584 67.041 287.584 63.72C287.584 62.449 288.65 61.301 290.126 61.301C290.659 61.301 291.315 61.506 291.971 61.834C293.242 62.49 294.349 62.654 295.661 62.654C297.342 62.654 298.203 61.834 298.203 60.973C298.203 57.98 288.117 59.333 288.117 52.199C288.117 48.345 290.905 45.639 295.702 45.639Z" fill="url(#paint0_linear_113_1186)"/>
<defs>
<linearGradient id="paint0_linear_113_1186" x1="8.90799e-07" y1="75.8379" x2="94.6425" y2="-110.674" gradientUnits="userSpaceOnUse">
<stop stop-color="#CD55FB"/>
<stop offset="0.5" stop-color="#FF4452"/>
<stop offset="1" stop-color="#FCB341"/>
</linearGradient>
</defs>
</svg>
