<svg width="319" height="30" viewBox="0 0 319 30" fill="none" xmlns="http://www.w3.org/2000/svg">
<path d="M312.169 26.6475C312.169 24.7809 313.679 23.2717 315.585 23.2717C317.412 23.2717 318.921 24.7809 318.921 26.6475C318.921 28.4744 317.412 29.9835 315.585 29.9835C313.679 29.9835 312.169 28.4744 312.169 26.6475ZM313.281 18.9824L312.169 4.36728C312.09 2.50067 313.639 1.07092 315.585 1.07092C317.452 1.07092 319 2.50067 318.921 4.36728L317.809 18.9824C317.73 20.2136 316.816 21.1271 315.585 21.1271C314.274 21.1271 313.361 20.2136 313.281 18.9824Z" fill="url(#paint0_linear_113_403)"/>
<path d="M305.201 28.398L299.799 20.6138L297.456 22.8378V28.4774C297.456 28.954 297.059 29.3511 296.622 29.3511H292.492C292.055 29.3511 291.658 28.954 291.658 28.4774V3.65543C291.658 2.06682 292.968 0.756226 294.597 0.756226C296.146 0.756226 297.456 2.06682 297.456 3.65543V16.0068L304.049 9.57298C304.565 9.05669 305.24 8.8184 305.955 8.8184C306.551 8.8184 307.186 9.01697 307.663 9.49356C308.656 10.4864 308.735 12.1545 307.703 13.1076L303.692 16.9203L309.808 25.459C310.681 26.6902 310.245 28.398 308.974 29.232C308.537 29.51 308.02 29.6291 307.544 29.6291C306.63 29.6291 305.717 29.1923 305.201 28.398Z" fill="url(#paint1_linear_113_403)"/>
<path d="M282.709 28.475V17.9504C282.709 15.4484 281.081 13.7009 278.817 13.7009C276.474 13.7009 274.846 15.4484 274.846 17.9504V28.475C274.846 28.9515 274.449 29.3487 274.012 29.3487H269.881C269.445 29.3487 269.047 28.9515 269.047 28.475V11.596C269.047 10.0074 270.358 8.69682 271.986 8.69682C273.297 8.69682 274.449 9.61027 274.766 10.8414C276.196 9.45141 278.182 8.6571 280.485 8.6571C285.211 8.6571 288.548 12.2315 288.548 17.3944V28.475C288.548 28.9515 288.15 29.3487 287.674 29.3487H283.583C283.146 29.3487 282.709 28.9515 282.709 28.475Z" fill="url(#paint2_linear_113_403)"/>
<path d="M259.478 28.4758V11.5968C259.478 10.0082 260.788 8.69761 262.416 8.69761C263.965 8.69761 265.276 10.0082 265.276 11.5968V28.4758C265.276 28.9523 264.879 29.3495 264.442 29.3495H260.312C259.875 29.3495 259.478 28.9523 259.478 28.4758ZM259.001 3.33607C259.001 1.50917 260.51 0 262.416 0C264.243 0 265.753 1.50917 265.753 3.33607C265.753 5.16297 264.243 6.67214 262.416 6.67214C260.51 6.67214 259.001 5.16297 259.001 3.33607Z" fill="url(#paint3_linear_113_403)"/>
<path d="M249.888 28.4774V3.65543C249.888 2.06682 251.199 0.756226 252.827 0.756226C254.376 0.756226 255.686 2.06682 255.686 3.65543V28.4774C255.686 28.954 255.289 29.3511 254.852 29.3511H250.722C250.285 29.3511 249.888 28.954 249.888 28.4774Z" fill="url(#paint4_linear_113_403)"/>
<path d="M238.386 29.3489H226.114C225.399 29.3489 224.803 28.7532 224.803 28.0383V4.68584C224.803 2.97809 226.193 1.54834 227.98 1.54834H236.837C242.834 1.54834 245.812 5.40071 245.812 9.25308C245.812 11.358 244.939 13.4629 243.191 14.9323C245.971 16.3224 247.361 18.9833 247.361 21.6045C247.361 25.4966 244.383 29.3489 238.386 29.3489ZM231.157 17.7521V23.908H237.472C239.934 23.908 241.126 22.3591 241.126 20.8102C241.126 19.301 239.934 17.7521 237.472 17.7521H231.157ZM231.157 6.98931V13.1452H235.923C238.346 13.1452 239.537 11.5963 239.537 10.0474C239.537 8.5382 238.346 6.98931 235.923 6.98931H231.157Z" fill="url(#paint5_linear_113_403)"/>
<path d="M202.855 29.9444C196.62 29.9444 192.172 25.536 192.172 19.261C192.172 13.0655 196.62 8.6571 202.855 8.6571C209.17 8.6571 213.618 13.0655 213.618 19.261C213.618 25.536 209.17 29.9444 202.855 29.9444ZM202.855 24.7815C205.873 24.7815 207.938 22.5574 207.938 19.261C207.938 16.0441 205.873 13.8201 202.855 13.8201C199.956 13.8201 197.851 16.0441 197.851 19.261C197.851 22.5574 199.956 24.7815 202.855 24.7815Z" fill="url(#paint6_linear_113_403)"/>
<path d="M187.913 13.7404H186.523V28.4747C186.523 28.9513 186.126 29.3485 185.689 29.3485H181.559C181.122 29.3485 180.725 28.9513 180.725 28.4747V13.7404H179.335C177.984 13.7404 176.912 12.6284 176.912 11.2781C176.912 9.92776 177.984 8.85545 179.335 8.85545H180.725V6.03568C180.725 4.44707 182.035 3.13647 183.664 3.13647C185.252 3.13647 186.523 4.44707 186.523 6.03568V8.85545H187.913C189.263 8.85545 190.336 9.92776 190.336 11.2781C190.336 12.6284 189.263 13.7404 187.913 13.7404Z" fill="url(#paint7_linear_113_403)"/>
<path d="M164.501 21.0879H152.785C153.421 23.4709 155.327 24.98 157.789 24.98C159.179 24.98 160.371 24.7417 161.483 24.1063C162.237 23.7091 162.873 23.5106 163.508 23.5106C164.938 23.5106 165.931 24.5829 165.931 25.8538C165.931 29.1501 160.172 29.865 157.829 29.865C151.514 29.865 147.066 25.4963 147.066 19.261C147.066 13.0655 151.276 8.6571 157.313 8.6571C163.151 8.6571 167.202 12.8272 167.202 18.427C167.202 20.4922 165.772 21.0879 164.501 21.0879ZM157.352 13.5818C155.128 13.5818 153.421 15.0115 152.785 17.3547H161.721C161.324 15.091 159.616 13.5818 157.352 13.5818Z" fill="url(#paint8_linear_113_403)"/>
<path d="M126.102 28.475V17.5533C126.102 15.2895 124.792 13.7009 122.925 13.7009C121.019 13.7009 119.669 15.2895 119.669 17.5533V28.475C119.669 28.9515 119.271 29.3487 118.835 29.3487H114.704C114.267 29.3487 113.87 28.9515 113.87 28.475V11.596C113.87 10.0074 115.181 8.69682 116.809 8.69682C118.04 8.69682 119.113 9.49112 119.51 10.6031C120.781 9.37198 122.528 8.6571 124.514 8.6571C127.135 8.6571 129.319 9.92799 130.59 12.0329C131.901 9.92799 134.085 8.6571 136.786 8.6571C141.115 8.6571 144.173 12.1123 144.173 17.0767V28.475C144.173 28.9515 143.776 29.3487 143.339 29.3487H139.208C138.772 29.3487 138.374 28.9515 138.374 28.475V17.5533C138.374 15.2895 137.024 13.7009 135.158 13.7009C133.251 13.7009 131.941 15.2895 131.941 17.5533V28.475C131.941 28.9515 131.543 29.3487 131.067 29.3487H126.976C126.539 29.3487 126.102 28.9515 126.102 28.475Z" fill="url(#paint9_linear_113_403)"/>
<path d="M100 29.9444C93.7651 29.9444 89.317 25.536 89.317 19.261C89.317 13.0655 93.7651 8.6571 100 8.6571C106.315 8.6571 110.763 13.0655 110.763 19.261C110.763 25.536 106.315 29.9444 100 29.9444ZM100 24.7815C103.019 24.7815 105.084 22.5574 105.084 19.261C105.084 16.0441 103.019 13.8201 100 13.8201C97.1012 13.8201 94.9963 16.0441 94.9963 19.261C94.9963 22.5574 97.1012 24.7815 100 24.7815Z" fill="url(#paint10_linear_113_403)"/>
<path d="M69.4198 19.261C69.4198 13.0655 73.8679 8.6571 80.1032 8.6571C82.4464 8.6571 87.6888 9.41169 87.6888 12.6286C87.6888 13.9392 86.6164 15.1307 85.1073 15.1307C84.5513 15.1307 83.8761 14.9718 83.2009 14.5747C82.2081 14.0186 81.2549 13.8201 80.1032 13.8201C77.204 13.8201 75.0991 16.0441 75.0991 19.261C75.0991 22.478 77.204 24.702 80.1032 24.702C81.2946 24.702 82.2478 24.5034 83.2009 23.9474C83.8761 23.5503 84.5513 23.3914 85.1073 23.3914C86.6164 23.3914 87.6888 24.5829 87.6888 25.8935C87.6888 29.1501 82.4464 29.865 80.1032 29.865C73.8679 29.865 69.4198 25.4566 69.4198 19.261Z" fill="url(#paint11_linear_113_403)"/>
<path d="M60.5057 28.4774V3.65543C60.5057 2.06682 61.8163 0.756226 63.4447 0.756226C64.9935 0.756226 66.3041 2.06682 66.3041 3.65543V28.4774C66.3041 28.954 65.907 29.3511 65.4701 29.3511H61.3398C60.9029 29.3511 60.5057 28.954 60.5057 28.4774Z" fill="url(#paint12_linear_113_403)"/>
<path d="M54.8562 21.0879H43.1402C43.7757 23.4709 45.682 24.98 48.1444 24.98C49.5344 24.98 50.7258 24.7417 51.8379 24.1063C52.5924 23.7091 53.2279 23.5106 53.8633 23.5106C55.2931 23.5106 56.286 24.5829 56.286 25.8538C56.286 29.1501 50.5273 29.865 48.1841 29.865C41.8694 29.865 37.4213 25.4963 37.4213 19.261C37.4213 13.0655 41.6311 8.6571 47.6678 8.6571C53.5059 8.6571 57.5568 12.8272 57.5568 18.427C57.5568 20.4922 56.1271 21.0879 54.8562 21.0879ZM47.7075 13.5818C45.4834 13.5818 43.7757 15.0115 43.1402 17.3547H52.0762C51.679 15.091 49.9712 13.5818 47.7075 13.5818Z" fill="url(#paint13_linear_113_403)"/>
<path d="M6.71924 27.8792L0.404538 5.32096C-0.0720439 3.69264 0.801689 2.06432 2.43001 1.54802C2.74773 1.46859 3.02574 1.38916 3.34346 1.38916C4.65406 1.38916 5.88523 2.30261 6.24266 3.69264L10.5716 20.4127L14.9006 3.69264C15.2977 2.14375 15.8934 1.46859 18.2763 1.46859C20.6593 1.46859 21.255 2.14375 21.6521 3.69264L25.9811 20.4127L30.31 3.69264C30.6675 2.30261 31.8986 1.38916 33.2092 1.38916C33.527 1.38916 33.805 1.46859 34.1227 1.54802C35.751 2.06432 36.6247 3.69264 36.1482 5.32096L29.8335 27.8792C29.5554 28.7529 28.9597 29.3486 28.2448 29.3486H23.9953C23.2407 29.3486 22.6053 28.7529 22.367 27.8792L18.2763 12.6285L14.1857 27.8792C13.9474 28.7529 13.312 29.3486 12.5574 29.3486H8.30785C7.59298 29.3486 6.99725 28.7529 6.71924 27.8792Z" fill="url(#paint14_linear_113_403)"/>
<defs>
<linearGradient id="paint0_linear_113_403" x1="312.167" y1="30.2941" x2="322.235" y2="29.1121" gradientUnits="userSpaceOnUse">
<stop stop-color="#CD55FB"/>
<stop offset="0.5" stop-color="#FF4452"/>
<stop offset="1" stop-color="#FCB341"/>
</linearGradient>
<linearGradient id="paint1_linear_113_403" x1="291.658" y1="29.9393" x2="317.096" y2="21.7046" gradientUnits="userSpaceOnUse">
<stop stop-color="#CD55FB"/>
<stop offset="0.5" stop-color="#FF4452"/>
<stop offset="1" stop-color="#FCB341"/>
</linearGradient>
<linearGradient id="paint2_linear_113_403" x1="269.047" y1="29.571" x2="293.109" y2="18.1799" gradientUnits="userSpaceOnUse">
<stop stop-color="#CD55FB"/>
<stop offset="0.5" stop-color="#FF4452"/>
<stop offset="1" stop-color="#FCB341"/>
</linearGradient>
<linearGradient id="paint3_linear_113_403" x1="259.001" y1="29.6648" x2="269.065" y2="28.5018" gradientUnits="userSpaceOnUse">
<stop stop-color="#CD55FB"/>
<stop offset="0.5" stop-color="#FF4452"/>
<stop offset="1" stop-color="#FCB341"/>
</linearGradient>
<linearGradient id="paint4_linear_113_403" x1="249.888" y1="29.6583" x2="258.556" y2="28.7753" gradientUnits="userSpaceOnUse">
<stop stop-color="#CD55FB"/>
<stop offset="0.5" stop-color="#FF4452"/>
<stop offset="1" stop-color="#FCB341"/>
</linearGradient>
<linearGradient id="paint5_linear_113_403" x1="224.803" y1="29.6476" x2="254.022" y2="17.7377" gradientUnits="userSpaceOnUse">
<stop stop-color="#CD55FB"/>
<stop offset="0.5" stop-color="#FF4452"/>
<stop offset="1" stop-color="#FCB341"/>
</linearGradient>
<linearGradient id="paint6_linear_113_403" x1="192.172" y1="30.1731" x2="217.96" y2="17.1218" gradientUnits="userSpaceOnUse">
<stop stop-color="#CD55FB"/>
<stop offset="0.5" stop-color="#FF4452"/>
<stop offset="1" stop-color="#FCB341"/>
</linearGradient>
<linearGradient id="paint7_linear_113_403" x1="176.912" y1="29.63" x2="195.929" y2="24.7377" gradientUnits="userSpaceOnUse">
<stop stop-color="#CD55FB"/>
<stop offset="0.5" stop-color="#FF4452"/>
<stop offset="1" stop-color="#FCB341"/>
</linearGradient>
<linearGradient id="paint8_linear_113_403" x1="147.066" y1="30.0928" x2="171.844" y2="18.2753" gradientUnits="userSpaceOnUse">
<stop stop-color="#CD55FB"/>
<stop offset="0.5" stop-color="#FF4452"/>
<stop offset="1" stop-color="#FCB341"/>
</linearGradient>
<linearGradient id="paint9_linear_113_403" x1="113.87" y1="29.571" x2="143.568" y2="7.72297" gradientUnits="userSpaceOnUse">
<stop stop-color="#CD55FB"/>
<stop offset="0.5" stop-color="#FF4452"/>
<stop offset="1" stop-color="#FCB341"/>
</linearGradient>
<linearGradient id="paint10_linear_113_403" x1="89.317" y1="30.1731" x2="115.106" y2="17.1218" gradientUnits="userSpaceOnUse">
<stop stop-color="#CD55FB"/>
<stop offset="0.5" stop-color="#FF4452"/>
<stop offset="1" stop-color="#FCB341"/>
</linearGradient>
<linearGradient id="paint11_linear_113_403" x1="69.4198" y1="30.0928" x2="92.6623" y2="20.0352" gradientUnits="userSpaceOnUse">
<stop stop-color="#CD55FB"/>
<stop offset="0.5" stop-color="#FF4452"/>
<stop offset="1" stop-color="#FCB341"/>
</linearGradient>
<linearGradient id="paint12_linear_113_403" x1="60.5057" y1="29.6583" x2="69.1741" y2="28.7753" gradientUnits="userSpaceOnUse">
<stop stop-color="#CD55FB"/>
<stop offset="0.5" stop-color="#FF4452"/>
<stop offset="1" stop-color="#FCB341"/>
</linearGradient>
<linearGradient id="paint13_linear_113_403" x1="37.4213" y1="30.0928" x2="62.1992" y2="18.2753" gradientUnits="userSpaceOnUse">
<stop stop-color="#CD55FB"/>
<stop offset="0.5" stop-color="#FF4452"/>
<stop offset="1" stop-color="#FCB341"/>
</linearGradient>
<linearGradient id="paint14_linear_113_403" x1="0.274902" y1="29.649" x2="38.6143" y2="4.84918" gradientUnits="userSpaceOnUse">
<stop stop-color="#CD55FB"/>
<stop offset="0.5" stop-color="#FF4452"/>
<stop offset="1" stop-color="#FCB341"/>
</linearGradient>
</defs>
</svg>
